<svg width="22" height="20" viewBox="0 0 22 20" fill="none" xmlns="http://www.w3.org/2000/svg">
<path d="M10.179 1.19694C10.3014 1.31888 10.3984 1.46377 10.4647 1.6233C10.5309 1.78284 10.565 1.95389 10.565 2.12663C10.565 2.29937 10.5309 2.47042 10.4647 2.62995C10.3984 2.78949 10.3014 2.93438 10.179 3.05632L4.54729 8.68804L20.6254 8.68804C20.9735 8.68804 21.3073 8.82632 21.5535 9.07246C21.7996 9.3186 21.9379 9.65244 21.9379 10.0005C21.9379 10.3486 21.7996 10.6825 21.5535 10.9286C21.3073 11.1748 20.9735 11.313 20.6254 11.313H4.54729L10.179 16.9469C10.4256 17.1935 10.5641 17.5279 10.5641 17.8766C10.5641 18.2253 10.4256 18.5597 10.179 18.8063C9.93244 19.0529 9.59802 19.1914 9.24932 19.1914C8.90062 19.1914 8.5662 19.0529 8.31963 18.8063L0.444629 10.9313C0.322269 10.8094 0.225183 10.6645 0.158938 10.505C0.0926938 10.3454 0.0585938 10.1744 0.0585938 10.0016C0.0585938 9.82889 0.0926938 9.65784 0.158938 9.4983C0.225183 9.33877 0.322269 9.19388 0.444629 9.07194L8.31963 1.19694C8.44156 1.07458 8.58646 0.977495 8.74599 0.911251C8.90553 0.845007 9.07657 0.810905 9.24932 0.810905C9.42206 0.810905 9.5931 0.845007 9.75264 0.911251C9.91218 0.977495 10.0571 1.07458 10.179 1.19694Z" fill="#2F2F2F"/>
</svg>
