<svg width="18" height="16" viewBox="0 0 18 16" fill="none" xmlns="http://www.w3.org/2000/svg">
<path d="M9 0.50293C8.67202 0.50293 8.34726 0.567529 8.04425 0.69304C7.74124 0.818552 7.46592 1.00252 7.234 1.23443C7.00209 1.46634 6.81812 1.74167 6.69261 2.04468C6.5671 2.34769 6.5025 2.67245 6.5025 3.00043C6.5025 3.32841 6.5671 3.65317 6.69261 3.95618C6.81812 4.25919 7.00209 4.53451 7.234 4.76643C7.46592 4.99834 7.74124 5.18231 8.04425 5.30782C8.34726 5.43333 8.67202 5.49793 9 5.49793C9.66238 5.49793 10.2976 5.2348 10.766 4.76643C11.2344 4.29806 11.4975 3.66281 11.4975 3.00043C11.4975 2.33805 11.2344 1.7028 10.766 1.23443C10.2976 0.766058 9.66238 0.50293 9 0.50293ZM14.625 1.75043C14.1277 1.75043 13.6508 1.94797 13.2992 2.2996C12.9475 2.65124 12.75 3.12815 12.75 3.62543C12.75 4.12271 12.9475 4.59962 13.2992 4.95125C13.6508 5.30289 14.1277 5.50043 14.625 5.50043C15.1223 5.50043 15.5992 5.30289 15.9508 4.95125C16.3025 4.59962 16.5 4.12271 16.5 3.62543C16.5 3.12815 16.3025 2.65124 15.9508 2.2996C15.5992 1.94797 15.1223 1.75043 14.625 1.75043ZM3.375 1.75043C2.87772 1.75043 2.40081 1.94797 2.04918 2.2996C1.69754 2.65124 1.5 3.12815 1.5 3.62543C1.5 4.12271 1.69754 4.59962 2.04918 4.95125C2.40081 5.30289 2.87772 5.50043 3.375 5.50043C3.87228 5.50043 4.3492 5.30289 4.70083 4.95125C5.05246 4.59962 5.25 4.12271 5.25 3.62543C5.25 3.12815 5.05246 2.65124 4.70083 2.2996C4.3492 1.94797 3.87228 1.75043 3.375 1.75043ZM5.25 7.99168C5.25231 7.66168 5.38503 7.34598 5.6192 7.11345C5.85337 6.88092 6.16999 6.75042 6.5 6.75043H11.5C11.8315 6.75043 12.1495 6.88213 12.3839 7.11655C12.6183 7.35097 12.75 7.66891 12.75 8.00043V11.7504C12.7503 12.1439 12.6887 12.5349 12.5675 12.9092C12.2907 13.7576 11.7206 14.4795 10.9594 14.9453C10.1982 15.4111 9.29594 15.5903 8.41454 15.4508C7.53313 15.3112 6.73035 14.862 6.15035 14.1838C5.57035 13.5056 5.25113 12.6428 5.25 11.7504V7.99168ZM4 8.00043C4 7.54418 4.12125 7.11793 4.335 6.75043H1.5C1.16848 6.75043 0.850537 6.88213 0.616117 7.11655C0.381696 7.35097 0.25 7.66891 0.25 8.00043V11.1254C0.24983 11.6371 0.375283 12.1409 0.615341 12.5927C0.8554 13.0445 1.20272 13.4305 1.6268 13.7167C2.05088 14.0029 2.53876 14.1807 3.04757 14.2343C3.55639 14.2879 4.07058 14.2157 4.545 14.0242C4.18599 13.3196 3.99921 12.5399 4 11.7492V8.00043ZM14 8.00043V11.7504C14 12.5692 13.8038 13.3417 13.455 14.0242C13.9294 14.2157 14.4436 14.2879 14.9524 14.2343C15.4612 14.1807 15.9491 14.0029 16.3732 13.7167C16.7973 13.4305 17.1446 13.0445 17.3847 12.5927C17.6247 12.1409 17.7502 11.6371 17.75 11.1254V8.00043C17.75 7.66891 17.6183 7.35097 17.3839 7.11655C17.1495 6.88213 16.8315 6.75043 16.5 6.75043H13.665C13.8775 7.11793 14 7.54418 14 8.00043Z" fill="#8491A5"/>
</svg>
