<svg width="20" height="20" viewBox="0 0 20 20" fill="none" xmlns="http://www.w3.org/2000/svg">
<path d="M16.6668 10.0003C16.6668 9.77931 16.579 9.56735 16.4228 9.41107C16.2665 9.25479 16.0545 9.16699 15.8335 9.16699H9.5085L11.4252 7.25866C11.5029 7.18096 11.5645 7.08872 11.6065 6.9872C11.6486 6.88568 11.6702 6.77687 11.6702 6.66699C11.6702 6.55711 11.6486 6.4483 11.6065 6.34678C11.5645 6.24527 11.5029 6.15302 11.4252 6.07533C11.3475 5.99763 11.2552 5.93599 11.1537 5.89394C11.0522 5.85189 10.9434 5.83025 10.8335 5.83025C10.7236 5.83025 10.6148 5.85189 10.5133 5.89394C10.4118 5.93599 10.3195 5.99763 10.2418 6.07533L6.9085 9.40866C6.83263 9.48791 6.77316 9.58137 6.7335 9.68366C6.65015 9.88654 6.65015 10.1141 6.7335 10.317C6.77316 10.4193 6.83263 10.5127 6.9085 10.592L10.2418 13.9253C10.3193 14.0034 10.4115 14.0654 10.513 14.1077C10.6146 14.15 10.7235 14.1718 10.8335 14.1718C10.9435 14.1718 11.0524 14.15 11.154 14.1077C11.2555 14.0654 11.3477 14.0034 11.4252 13.9253C11.5033 13.8479 11.5653 13.7557 11.6076 13.6541C11.6499 13.5526 11.6717 13.4437 11.6717 13.3337C11.6717 13.2236 11.6499 13.1147 11.6076 13.0132C11.5653 12.9116 11.5033 12.8195 11.4252 12.742L9.5085 10.8337H15.8335C16.0545 10.8337 16.2665 10.7459 16.4228 10.5896C16.579 10.4333 16.6668 10.2213 16.6668 10.0003ZM14.1668 1.66699H5.8335C5.17045 1.66699 4.53457 1.93038 4.06573 2.39923C3.59689 2.86807 3.3335 3.50395 3.3335 4.16699V15.8337C3.3335 16.4967 3.59689 17.1326 4.06573 17.6014C4.53457 18.0703 5.17045 18.3337 5.8335 18.3337H14.1668C14.8299 18.3337 15.4658 18.0703 15.9346 17.6014C16.4034 17.1326 16.6668 16.4967 16.6668 15.8337V13.3337C16.6668 13.1126 16.579 12.9007 16.4228 12.7444C16.2665 12.5881 16.0545 12.5003 15.8335 12.5003C15.6125 12.5003 15.4005 12.5881 15.2442 12.7444C15.088 12.9007 15.0002 13.1126 15.0002 13.3337V15.8337C15.0002 16.0547 14.9124 16.2666 14.7561 16.4229C14.5998 16.5792 14.3878 16.667 14.1668 16.667H5.8335C5.61248 16.667 5.40052 16.5792 5.24424 16.4229C5.08796 16.2666 5.00016 16.0547 5.00016 15.8337V4.16699C5.00016 3.94598 5.08796 3.73402 5.24424 3.57774C5.40052 3.42146 5.61248 3.33366 5.8335 3.33366H14.1668C14.3878 3.33366 14.5998 3.42146 14.7561 3.57774C14.9124 3.73402 15.0002 3.94598 15.0002 4.16699V6.66699C15.0002 6.88801 15.088 7.09997 15.2442 7.25625C15.4005 7.41253 15.6125 7.50033 15.8335 7.50033C16.0545 7.50033 16.2665 7.41253 16.4228 7.25625C16.579 7.09997 16.6668 6.88801 16.6668 6.66699V4.16699C16.6668 3.50395 16.4034 2.86807 15.9346 2.39923C15.4658 1.93038 14.8299 1.66699 14.1668 1.66699Z" fill="#FFC300"/>
</svg>
