<svg width="20" height="20" viewBox="0 0 20 20" fill="none" xmlns="http://www.w3.org/2000/svg">
<path d="M15.0003 11.4287C15.5686 11.4287 16.1136 11.6545 16.5155 12.0563C16.9174 12.4582 17.1431 13.0032 17.1431 13.5716V14.0823C17.1431 16.6373 14.136 18.5716 10.0003 18.5716C5.86456 18.5716 2.85742 16.738 2.85742 14.0823V13.5716C2.85742 13.0032 3.08319 12.4582 3.48505 12.0563C3.88691 11.6545 4.43196 11.4287 5.00028 11.4287H15.0003ZM10.0003 1.42871C10.5631 1.42871 11.1204 1.53956 11.6404 1.75494C12.1603 1.97032 12.6328 2.286 13.0307 2.68397C13.4287 3.08193 13.7444 3.55439 13.9598 4.07435C14.1751 4.59432 14.286 5.15162 14.286 5.71443C14.286 6.27723 14.1751 6.83453 13.9598 7.3545C13.7444 7.87446 13.4287 8.34692 13.0307 8.74488C12.6328 9.14285 12.1603 9.45853 11.6404 9.67391C11.1204 9.88929 10.5631 10.0001 10.0003 10.0001C8.86364 10.0001 7.77355 9.54861 6.96982 8.74488C6.16609 7.94115 5.71456 6.85107 5.71456 5.71443C5.71456 4.57778 6.16609 3.48769 6.96982 2.68397C7.77355 1.88024 8.86364 1.42871 10.0003 1.42871Z" fill="#8491A5"/>
</svg>
