<svg width="17" height="17" viewBox="0 0 17 17" fill="none" xmlns="http://www.w3.org/2000/svg">
<path fill-rule="evenodd" clip-rule="evenodd" d="M7.74984 0.666992C3.83782 0.666992 0.666504 3.83831 0.666504 7.75033C0.666504 11.6623 3.83782 14.8337 7.74984 14.8337C9.40559 14.8337 10.9287 14.2656 12.1348 13.3137L15.1783 16.3572C15.5038 16.6827 16.0314 16.6827 16.3568 16.3572C16.6823 16.0318 16.6823 15.5042 16.3568 15.1787L13.3133 12.1352C14.2651 10.9291 14.8332 9.40599 14.8332 7.75033C14.8332 3.83831 11.6618 0.666992 7.74984 0.666992ZM2.33317 7.75033C2.33317 4.75878 4.7583 2.33366 7.74984 2.33366C10.7414 2.33366 13.1665 4.75878 13.1665 7.75033C13.1665 10.7419 10.7414 13.167 7.74984 13.167C4.7583 13.167 2.33317 10.7419 2.33317 7.75033Z" fill="#B5BDC9"/>
</svg>
