<svg width="20" height="20" viewBox="0 0 20 20" fill="none" xmlns="http://www.w3.org/2000/svg">
<path d="M12.5002 1.66699C13.0696 1.66699 13.5723 1.95258 13.873 2.38834L13.9438 2.50033H15.0002C15.8788 2.50033 16.5986 3.18022 16.6623 4.04261L16.6668 4.16699V14.167C16.6668 16.4076 14.8982 18.2352 12.6809 18.3298L12.5002 18.3337H5.00016C4.12153 18.3337 3.40169 17.6538 3.33807 16.7914L3.3335 16.667V4.16699C3.3335 3.28836 4.01339 2.56852 4.87578 2.5049L5.00016 2.50033H6.05646C6.32247 2.04048 6.80188 1.71952 7.35927 1.67286L7.50016 1.66699H12.5002ZM5.8335 4.16699H5.00016V16.667H12.5002C13.8809 16.667 15.0002 15.5477 15.0002 14.167V4.16699H14.1668C14.1668 5.08747 13.4207 5.83366 12.5002 5.83366H7.50016C6.57969 5.83366 5.8335 5.08747 5.8335 4.16699ZM10.0002 11.667C10.4604 11.667 10.8335 12.0401 10.8335 12.5003C10.8335 12.9277 10.5118 13.2799 10.0973 13.3281L10.0002 13.3337H7.50016C7.03993 13.3337 6.66683 12.9606 6.66683 12.5003C6.66683 12.073 6.98853 11.7207 7.40298 11.6726L7.50016 11.667H10.0002ZM12.5002 8.33366C12.9604 8.33366 13.3335 8.70674 13.3335 9.16699C13.3335 9.62724 12.9604 10.0003 12.5002 10.0003H7.50016C7.03993 10.0003 6.66683 9.62724 6.66683 9.16699C6.66683 8.70674 7.03993 8.33366 7.50016 8.33366H12.5002ZM12.5002 3.33366H7.50016V4.16699H12.5002V3.33366Z" fill="#8491A5"/>
</svg>
