<svg width="20" height="20" viewBox="0 0 20 20" fill="none" xmlns="http://www.w3.org/2000/svg">
<g clip-path="url(#clip0_1969_37302)">
<path d="M20.0002 7.84971C20.0006 7.57819 19.9292 7.31141 19.793 7.07648C19.6569 6.84155 19.461 6.64686 19.2252 6.51221L10.8002 1.51221C10.5574 1.37055 10.2813 1.2959 10.0002 1.2959C9.71911 1.2959 9.44304 1.37055 9.20022 1.51221L0.762724 6.51221C0.529564 6.65056 0.336414 6.8472 0.202259 7.08279C0.0681031 7.31839 -0.00244141 7.58484 -0.00244141 7.85596C-0.00244141 8.12708 0.0681031 8.39353 0.202259 8.62913C0.336414 8.86473 0.529564 9.06136 0.762724 9.19971L3.16272 10.5997V14.1122C3.16417 14.3867 3.23622 14.6562 3.37195 14.8949C3.50767 15.1335 3.70251 15.3332 3.93772 15.4747L9.25022 18.5372C9.48742 18.6685 9.7541 18.7374 10.0252 18.7374C10.2963 18.7374 10.563 18.6685 10.8002 18.5372L16.1127 15.4747C16.3479 15.3332 16.5428 15.1335 16.6785 14.8949C16.8142 14.6562 16.8863 14.3867 16.8877 14.1122V10.5622L18.4377 9.64971V13.0497H20.0002V7.84971ZM15.3377 14.0997L10.0002 17.1747L4.72522 14.1122V11.5247L9.20022 14.1872C9.44386 14.3264 9.71961 14.3997 10.0002 14.3997C10.2808 14.3997 10.5566 14.3264 10.8002 14.1872L15.3252 11.4872L15.3377 14.0997ZM10.0002 12.8372L1.56272 7.83721L10.0002 2.82471L18.4377 7.82471L10.0002 12.8372Z" fill="#8491A5"/>
</g>
<defs>
<clipPath id="clip0_1969_37302">
<rect width="20" height="20" fill="white"/>
</clipPath>
</defs>
</svg>
